<?xml version="1.0" encoding="utf-8"?><svg xml:space="preserve" viewBox="0 0 100 100" y="0px" x="0px" xmlns:xlink="http://www.w3.org/1999/xlink" xmlns="http://www.w3.org/2000/svg" id="圖層_1" version="1.1" width="200px" height="200px" style="width:100%;height:100%;background-size:initial;background-repeat-y:initial;background-repeat-x:initial;background-position-y:initial;background-position-x:initial;background-origin:initial;background-color:initial;background-clip:initial;background-attachment:initial;animation-play-state:paused" ><g class="ldl-scale" style="transform-origin:50% 50%;transform:rotate(0deg) scale(0.8, 0.8);animation-play-state:paused" ><g style="animation-play-state:paused" ><path d="M77,56.9l-3.2,9.5c-0.2,0.6-1,0.6-1.2,0 l-3.2-9.5c-0.1-0.2-0.2-0.3-0.4-0.4l-9.5-3.2c-0.6-0.2-0.6-1,0-1.2l9.5-3.2c0.2-0.1,0.3-0.2,0.4-0.4l3.2-9.5c0.2-0.6,1-0.6,1.2,0 l3.2,9.5c0.1,0.2,0.2,0.3,0.4,0.4l9.5,3.2c0.6,0.2,0.6,1,0,1.2l-9.5,3.2C77.2,56.6,77.1,56.7,77,56.9z" stroke-miterlimit="10" stroke-width="3.5" stroke="#333435" fill="#F5E169" style="stroke:rgb(208, 214, 220);fill:rgb(255, 232, 92);animation-play-state:paused" ></path>
<path d="M28.9,31.9l-2.8,8.2c-0.2,0.5-0.8,0.5-1,0 l-2.8-8.2c-0.1-0.2-0.2-0.3-0.3-0.3l-8.2-2.8c-0.5-0.2-0.5-0.8,0-1L22,25c0.2-0.1,0.3-0.2,0.3-0.3l2.8-8.2c0.2-0.5,0.8-0.5,1,0 l2.8,8.2c0.1,0.2,0.2,0.3,0.3,0.3l8.2,2.8c0.5,0.2,0.5,0.8,0,1l-8.2,2.8C29.1,31.6,28.9,31.8,28.9,31.9z" stroke-miterlimit="10" stroke-width="3.5" stroke="#333435" fill="#F5E169" style="stroke:rgb(208, 214, 220);fill:rgb(255, 232, 92);animation-play-state:paused" ></path></g>
<g style="animation-play-state:paused" ><path d="M43.6,75.5L38.1,92c-0.3,1-1.7,1-2,0 l-5.6-16.4c-0.1-0.3-0.4-0.6-0.7-0.7l-16.4-5.6c-1-0.3-1-1.7,0-2l16.4-5.6c0.3-0.1,0.6-0.4,0.7-0.7l5.6-16.4c0.3-1,1.7-1,2,0 L43.6,61c0.1,0.3,0.4,0.6,0.7,0.7l16.4,5.6c1,0.3,1,1.7,0,2l-16.4,5.6C44,75,43.8,75.2,43.6,75.5z" stroke-miterlimit="10" stroke-width="3.5" stroke="#333435" fill="#F5E169" style="stroke:rgb(208, 214, 220);fill:rgb(255, 232, 92);animation-play-state:paused" ></path>
<path d="M64.4,21.2l-2.4,7.2c-0.1,0.4-0.8,0.4-0.9,0 l-2.4-7.2c0-0.1-0.2-0.2-0.3-0.3l-7.2-2.4c-0.4-0.1-0.4-0.8,0-0.9l7.2-2.4c0.1,0,0.2-0.2,0.3-0.3L61,7.6c0.1-0.4,0.8-0.4,0.9,0 l2.4,7.2c0,0.1,0.2,0.2,0.3,0.3l7.2,2.4c0.4,0.1,0.4,0.8,0,0.9l-7.2,2.4C64.5,21,64.4,21.1,64.4,21.2z" stroke-miterlimit="10" stroke-width="3.5" stroke="#333435" fill="#F5E169" style="stroke:rgb(208, 214, 220);fill:rgb(255, 232, 92);animation-play-state:paused" ></path></g>
<metadata xmlnsD="https://loading.io/stock/" style="animation-play-state:paused" ><dName style="animation-play-state:paused" >star</dName>


<dTags style="animation-play-state:paused" >star,cluster,galaxy,beehive,bright,splendid,subaru</dTags>


<dLicense style="animation-play-state:paused" >by</dLicense>


<dSlug style="animation-play-state:paused" >vpsr2a</dSlug></metadata></g><!-- generated by https://loading.io/ --></svg>